# xmcd
#
# Track frame offsets: 
#        150
#        23880
#        45196
#        67106
#        92304
#        115789
#        133287
#        152663
#        172249
#        196123
#        219600
#        237326
#        253309
#        270768
#
# Disc length: 3939 seconds
#
# Revision: 0
# Processed by: cddbd v1.5.2PL0 Copyright (c) Steve Scherf et al.
# Submitted via: ExactAudioCopy v1.0b3
#
DISCID=bf0f610e
DTITLE=Billy Davis Rhythm Machine - It Aint Easy
DYEAR=2007
DGENRE=Blues
TTITLE0=1 Do It With You
TTITLE1=2 Tax On Tax
TTITLE2=3 Money Talks
TTITLE3=4 It Aint Easy
TTITLE4=5 Going To The Crossroads
TTITLE5=6 Do As You Choose
TTITLE6=7 Faces And Places
TTITLE7=8 Playin My Song
TTITLE8=9 Sams Song
TTITLE9=10 Lovemaker
TTITLE10=11 Sin City
TTITLE11=12 One Kiss
TTITLE12=13 Lay Down In My Bed
TTITLE13=14 Ill Be Good To You
EXTD=
EXTT0=
EXTT1=
EXTT2=
EXTT3=
EXTT4=
EXTT5=
EXTT6=
EXTT7=
EXTT8=
EXTT9=
EXTT10=
EXTT11=
EXTT12=
EXTT13=
PLAYORDER=
